name C:\Users\r0593348\3dpredictsim\Results\batch_windlass\Pog_s1_tmt_bCst_d05_k1500_WL40_ig24.mot
datacolumns 128
datarows 4
range 1.60795783 1.64011699
endheader
time	pelvis_tilt	pelvis_list	pelvis_rotation	pelvis_tx	pelvis_ty	pelvis_tz	hip_flexion_l	hip_adduction_l	hip_rotation_l	hip_flexion_r	hip_adduction_r	hip_rotation_r	knee_angle_l	knee_angle_r	ankle_angle_l	ankle_angle_r	subtalar_angle_l	subtalar_angle_r	tmt_angle_l	tmt_angle_r	mtp_angle_l	mtp_angle_r	lumbar_extension	lumbar_bending	lumbar_rotation	arm_flex_l	arm_add_l	arm_rot_l	arm_flex_r	arm_add_r	arm_rot_r	elbow_flex_l	elbow_flex_r	pro_sup_l	pro_sup_r	glut_med1_l/activation	glut_med2_l/activation	glut_med3_l/activation	glut_min1_l/activation	glut_min2_l/activation	glut_min3_l/activation	semimem_l/activation	semiten_l/activation	bifemlh_l/activation	bifemsh_l/activation	sar_l/activation	add_long_l/activation	add_brev_l/activation	add_mag1_l/activation	add_mag2_l/activation	add_mag3_l/activation	tfl_l/activation	pect_l/activation	grac_l/activation	glut_max1_l/activation	glut_max2_l/activation	glut_max3_l/activation	iliacus_l/activation	psoas_l/activation	quad_fem_l/activation	gem_l/activation	peri_l/activation	rect_fem_l/activation	vas_med_l/activation	vas_int_l/activation	vas_lat_l/activation	med_gas_l/activation	lat_gas_l/activation	soleus_l/activation	tib_post_l/activation	flex_dig_l/activation	flex_hal_l/activation	tib_ant_l/activation	per_brev_l/activation	per_long_l/activation	per_tert_l/activation	ext_dig_l/activation	ext_hal_l/activation	ercspn_l/activation	intobl_l/activation	extobl_l/activation	glut_med1_r/activation	glut_med2_r/activation	glut_med3_r/activation	glut_min1_r/activation	glut_min2_r/activation	glut_min3_r/activation	semimem_r/activation	semiten_r/activation	bifemlh_r/activation	bifemsh_r/activation	sar_r/activation	add_long_r/activation	add_brev_r/activation	add_mag1_r/activation	add_mag2_r/activation	add_mag3_r/activation	tfl_r/activation	pect_r/activation	grac_r/activation	glut_max1_r/activation	glut_max2_r/activation	glut_max3_r/activation	iliacus_r/activation	psoas_r/activation	quad_fem_r/activation	gem_r/activation	peri_r/activation	rect_fem_r/activation	vas_med_r/activation	vas_int_r/activation	vas_lat_r/activation	med_gas_r/activation	lat_gas_r/activation	soleus_r/activation	tib_post_r/activation	flex_dig_r/activation	flex_hal_r/activation	tib_ant_r/activation	per_brev_r/activation	per_long_r/activation	per_tert_r/activation	ext_dig_r/activation	ext_hal_r/activation	ercspn_r/activation	intobl_r/activation	extobl_r/activation	
          1.60795783	         -2.92721469	          1.47951945	         -5.41798302	          2.00994729	          0.86289882	          0.00123130	         31.22054217	          2.03506546	         -2.15564054	        -16.97945516	         -1.32443106	          7.22706045	        -17.37297124	         -9.10062353	          5.48453450	          2.05451752	          1.99127777	         13.61151730	         -0.44472420	        -12.23837578	          0.95059397	         28.80390717	         -1.08240779	          0.22160528	          1.91490061	         -9.87439153	        -13.52064125	          8.06320332	          6.28160035	        -13.45731816	         16.40317042	         16.18361469	         33.94727148	         86.51662706	         86.51662706	          0.06646269	          0.06805710	          0.05000008	          0.05000011	          0.05000020	          0.05893349	          0.06003009	          0.05893327	          0.06721618	          0.05000055	          0.05000009	          0.08126111	          0.10387013	          0.13088103	          0.13472646	          0.10940904	          0.05893290	          0.05000076	          0.05893395	          0.05893333	          0.05893365	          0.10489654	          0.05025246	          0.05812188	          0.25518635	          0.05000011	          0.05000040	          0.05000011	          0.09313917	          0.10340800	          0.07948664	          0.05000000	          0.05000007	          0.05000000	          0.05893307	          0.05893318	          0.05893319	          0.47000279	          0.33505584	          0.20187317	          0.11004599	          0.49530096	          0.18448250	          0.05489543	          0.10215924	          0.12421602	          0.31538693	          0.10057294	          0.05552270	          0.30445662	          0.20318091	          0.09945464	          0.05000163	          0.05000019	          0.05000012	          0.06820824	          0.07724089	          0.08191679	          0.05000015	          0.05000019	          0.05000068	          0.05886429	          0.26252339	          0.05000039	          0.05000017	          0.05000111	          0.05000085	          0.05000060	          0.26651044	          0.49449397	          0.05000004	          0.05000023	          0.05000005	          0.19912382	          0.09591468	          0.06748015	          0.10717437	          0.26460093	          0.33800058	          0.21138871	          0.20135865	          0.19045822	          0.25481835	          0.05000000	          0.14819153	          0.20159663	          0.05000004	          0.05000000	          0.05000002	          0.05000000	          0.05000005	          0.05000001	
          1.61867755	         -2.91922151	          1.54401299	         -5.66065206	          2.02625532	          0.86207781	          0.00102128	         30.58468409	          2.37931216	         -1.95867918	        -16.79389244	         -1.57019687	          7.00358035	        -16.90487564	        -11.01095650	          5.18493918	          1.00602160	          1.53134496	         14.38105573	         -0.53769979	        -12.69670583	          1.15048003	         29.65389369	         -0.87425128	         -0.00077966	          1.98564683	        -10.91510060	        -13.50968422	          7.88351194	          6.06253471	        -13.47624149	         16.65143651	         16.15053648	         34.90612094	         86.51662706	         86.51662706	          0.05638829	          0.05774104	          0.25035571	          0.05893311	          0.05893309	          0.05000054	          0.05893295	          0.05000017	          0.05893321	          0.05000003	          0.05000122	          0.11373852	          0.27616988	          0.22245986	          0.15778811	          0.12488617	          0.05000004	          0.08187292	          0.05000083	          0.05000023	          0.05000048	          0.15818619	          0.05893314	          0.05663241	          0.21650547	          0.18639959	          0.11728836	          0.06164673	          0.18746239	          0.18539996	          0.15733694	          0.05015527	          0.05000008	          0.05491390	          0.05000000	          0.05000009	          0.05000011	          0.63773247	          0.30645635	          0.17127320	          0.48096966	          0.59873680	          0.32387313	          0.05000001	          0.08667391	          0.10538732	          0.26758065	          0.08532807	          0.05000001	          0.25830703	          0.17238270	          0.08437929	          0.05000027	          0.05000004	          0.05000002	          0.05786923	          0.06553276	          0.11934815	          0.19647462	          0.05185504	          0.05000057	          0.05000009	          0.22273009	          0.10508626	          0.05000064	          0.05000034	          0.05000018	          0.05000013	          0.22611273	          0.44985901	          0.05000004	          0.05000012	          0.05000006	          0.16894059	          0.11192637	          0.05725201	          0.12133473	          0.22449263	          0.28676634	          0.17934634	          0.17083666	          0.16158856	          0.21619293	          0.05000006	          0.12572862	          0.17103856	          0.05000005	          0.08199272	          0.05000011	          0.05000009	          0.05473459	          0.05000025	
          1.62939727	         -2.90644042	          1.61528793	         -5.87917115	          2.04279656	          0.86101546	          0.00082075	         29.82724253	          2.70853411	         -1.69491129	        -16.52664007	         -1.80724963	          6.76324339	        -17.00466073	        -13.10732123	          4.73799492	         -0.06272428	          1.06185504	         15.08657199	         -0.69068215	        -12.95367766	          1.42727495	         29.96942586	         -0.65015559	         -0.23874632	          2.04609129	        -11.94483594	        -13.50740211	          7.77052637	          5.77168480	        -13.50276573	         16.82821226	         16.09658974	         35.85344108	         86.51662706	         86.51662706	          0.05000000	          0.05000002	          0.21240674	          0.05000003	          0.05000003	          0.05000005	          0.05000002	          0.05000008	          0.05000011	          0.05000003	          0.05000021	          0.09649802	          0.23430800	          0.31530067	          0.26046533	          0.14846567	          0.05000036	          0.06946284	          0.08170577	          0.10171313	          0.10639447	          0.13420832	          0.05000006	          0.05000009	          0.29690829	          0.15814509	          0.09950977	          0.05893316	          0.25478504	          0.26004284	          0.21795020	          0.05000003	          0.05000013	          0.05000000	          0.05000141	          0.05893331	          0.05893319	          0.54106478	          0.33277922	          0.18050266	          0.40806417	          0.50798011	          0.27478035	          0.05000000	          0.07353585	          0.08941267	          0.22702070	          0.07239402	          0.05000017	          0.21915279	          0.14625289	          0.07158907	          0.05000220	          0.05000026	          0.05893271	          0.05000001	          0.05559932	          0.19723662	          0.31392971	          0.23414797	          0.08689232	          0.13589945	          0.18896864	          0.08915740	          0.05000033	          0.05000551	          0.05893183	          0.05893322	          0.19183850	          0.41174336	          0.05893300	          0.05893287	          0.05000026	          0.14333253	          0.12434796	          0.15801217	          0.10294419	          0.19046396	          0.24329821	          0.15216096	          0.14494119	          0.13709495	          0.18342236	          0.14710332	          0.10667071	          0.16044149	          0.05000028	          0.18226277	          0.09498288	          0.05854359	          0.06693468	          0.06386899	
          1.64011699	         -2.89058728	          1.68815279	         -6.07000166	          2.05944736	          0.85970617	          0.00064116	         28.87135579	          2.99108287	         -1.40283252	        -16.17180257	         -2.02438247	          6.51793318	        -17.26532243	        -15.40369447	          4.44841538	         -1.08023333	          0.55524060	         15.70324424	         -0.81671873	        -12.81453372	          1.61439154	         29.34471348	         -0.42186343	         -0.48410193	          2.09384906	        -12.93429831	        -13.51829761	          7.75801576	          5.42522004	        -13.53717591	         16.93826273	         16.00050396	         36.79296874	         86.51662706	         86.51662706	          0.27627266	          0.28903997	          0.44143821	          0.30247955	          0.11309268	          0.28030016	          0.08698257	          0.11750891	          0.09147158	          0.06946205	          0.05000021	          0.08187084	          0.19879154	          0.26750733	          0.22098399	          0.14031834	          0.05000006	          0.05893451	          0.10382051	          0.20142825	          0.15350957	          0.11752239	          0.05893303	          0.05000029	          0.25190287	          0.13417346	          0.27666978	          0.05000006	          0.21616468	          0.22062564	          0.18491329	          0.05000009	          0.05000010	          0.05714962	          0.05000000	          0.05000020	          0.05000011	          0.62459927	          0.28233644	          0.15314201	          0.65477649	          0.60090463	          0.36395642	          0.05443830	          0.08596583	          0.07585947	          0.25396449	          0.06142053	          0.05000000	          0.21208834	          0.12408390	          0.06073761	          0.05000190	          0.05000011	          0.05000006	          0.05000029	          0.06946261	          0.16733947	          0.26634417	          0.19865577	          0.07372121	          0.11529979	          0.24845614	          0.07564314	          0.05000043	          0.05000024	          0.05000014	          0.05000018	          0.18027302	          0.40208656	          0.05000001	          0.05000007	          0.05000003	          0.12160615	          0.10549926	          0.13406064	          0.08733988	          0.16159337	          0.20641899	          0.12909635	          0.12297098	          0.11631411	          0.15561919	          0.20080912	          0.14700079	          0.16217226	          0.18433899	          0.23340917	          0.08187261	          0.07987658	          0.05678870	          0.05418772	
